HIERARCHY
ROOT Hips
{
	OFFSET -0.001795 -0.223333 0.028219
	CHANNELS 6 Xposition Yposition Zposition Zrotation Yrotation Xrotation 
	JOINT LeftUpLeg
	{
		OFFSET 0.069520 -0.091406 -0.006815
		CHANNELS 3 Zrotation Yrotation Xrotation
		JOINT LeftLeg
		{
			OFFSET 0.034277 -0.375199 -0.004496
			CHANNELS 3 Zrotation Yrotation Xrotation
			JOINT LeftFoot
			{
				OFFSET -0.013596 -0.397961 -0.043693
				CHANNELS 3 Zrotation Yrotation Xrotation
				JOINT LeftToe
				{
					OFFSET 0.026358 -0.055791 0.119288
					CHANNELS 3 Zrotation Yrotation Xrotation
					End Site
					{
						OFFSET 0.000000 0.000000 0.000000
					}
				}
			}
		}
	}
	JOINT RightUpLeg
	{
		OFFSET -0.067670 -0.090522 -0.004320
		CHANNELS 3 Zrotation Yrotation Xrotation
		JOINT RightLeg
		{
			OFFSET -0.038290 -0.382569 -0.008850
			CHANNELS 3 Zrotation Yrotation Xrotation
			JOINT RightFoot
			{
				OFFSET 0.015774 -0.398415 -0.042312
				CHANNELS 3 Zrotation Yrotation Xrotation
				JOINT RightToe
				{
					OFFSET -0.025372 -0.048144 0.123348
					CHANNELS 3 Zrotation Yrotation Xrotation
					End Site
					{
						OFFSET 0.000000 0.000000 0.000000
					}
				}
			}
		}
	}
	JOINT Spine
	{
		OFFSET -0.002533 0.108963 -0.026696
		CHANNELS 3 Zrotation Yrotation Xrotation
		JOINT Spine1
		{
			OFFSET 0.005487 0.135180 0.001092
			CHANNELS 3 Zrotation Yrotation Xrotation
			JOINT Spine2
			{
				OFFSET 0.001457 0.052922 0.025425
				CHANNELS 3 Zrotation Yrotation Xrotation
				JOINT Neck
				{
					OFFSET -0.002778 0.213870 -0.042857
					CHANNELS 3 Zrotation Yrotation Xrotation
					JOINT Head
					{
						OFFSET 0.005152 0.064970 0.051349
						CHANNELS 3 Zrotation Yrotation Xrotation
						End Site
						{
							OFFSET 0.000000 0.000000 0.000000
						}
					}
				}
				JOINT LeftShoulder
				{
					OFFSET 0.078845 0.121749 -0.034090
					CHANNELS 3 Zrotation Yrotation Xrotation
					JOINT LeftArm
					{
						OFFSET 0.090977 0.030469 -0.008868
						CHANNELS 3 Zrotation Yrotation Xrotation
						JOINT LeftForeArm
						{
							OFFSET 0.259612 -0.012772 -0.027456
							CHANNELS 3 Zrotation Yrotation Xrotation
							JOINT LeftHand
							{
								OFFSET 0.249234 0.008986 -0.001171
								CHANNELS 3 Zrotation Yrotation Xrotation
								End Site
								{
									OFFSET 0.000000 0.000000 0.000000
								}
							}
						}
					}
				}
				JOINT RightShoulder
				{
					OFFSET -0.081759 0.118833 -0.038615
					CHANNELS 3 Zrotation Yrotation Xrotation
					JOINT RightArm
					{
						OFFSET -0.096012 0.032551 -0.009143
						CHANNELS 3 Zrotation Yrotation Xrotation
						JOINT RightForeArm
						{
							OFFSET -0.253742 -0.013329 -0.021401
							CHANNELS 3 Zrotation Yrotation Xrotation
							JOINT RightHand
							{
								OFFSET -0.255298 0.007772 -0.005559
								CHANNELS 3 Zrotation Yrotation Xrotation
								End Site
								{
									OFFSET 0.000000 0.000000 0.000000
								}
							}
						}
					}
				}
			}
		}
	}
}
MOTION
Frames: 8
Frame Time: 0.050000
0.000000 0.942771 0.000000 -6.893151 -19.692839 10.169497 11.534665 1.187829 -19.073399 -3.139890 0.719652 9.222336 5.218182 10.804160 8.241087 0.000000 0.000000 0.000000 -4.986128 1.317225 -13.129997 4.943533 -0.149545 7.304441 -5.864027 -18.301985 14.752503 0.000000 0.000000 0.000000 -10.134944 2.689636 22.888731 -0.092557 0.103885 -18.997154 -2.734815 7.602861 26.793397 -5.913384 4.798951 -18.758866 0.000000 0.000000 0.000000 -20.844577 -20.784823 11.833758 -47.772470 -42.934510 9.630491 1.626167 -43.173236 2.226890 0.000000 0.000000 0.000000 -0.225633 22.431261 7.692701 35.467999 35.861764 4.456568 -30.849232 76.943698 -21.080132 0.000000 0.000000 0.000000 
-0.001038 0.942554 -0.000110 -6.883794 -21.070995 10.228809 12.471860 1.479556 -18.800801 -4.729538 1.204042 10.176584 4.619848 9.651613 7.493290 0.000000 0.000000 0.000000 -4.682014 1.321493 -12.956388 3.520004 -0.011731 6.331925 -4.326616 -16.248039 15.484214 0.000000 0.000000 0.000000 -10.261277 2.765698 22.555975 -0.432947 0.201120 -19.754227 -3.191807 6.852589 28.073006 -7.349941 5.535470 -19.161033 0.000000 0.000000 0.000000 -21.721884 -18.655661 11.356483 -47.314928 -42.271104 8.916298 3.455814 -49.478454 2.235023 0.000000 0.000000 0.000000 -3.658979 21.860024 6.991387 37.996460 40.090974 5.979266 -20.442391 75.996325 -12.815015 0.000000 0.000000 0.000000 
-0.001600 0.942481 -0.000180 -6.648036 -18.741834 10.310942 12.513308 1.425359 -20.072375 -4.753854 1.240675 11.805944 4.250755 9.117524 6.083081 0.000000 0.000000 0.000000 -4.291481 1.262262 -12.539994 2.383967 0.059180 5.845726 -4.505071 -16.250370 15.307538 0.000000 0.000000 0.000000 -9.143665 2.327317 22.806049 -1.193289 0.401672 -18.408051 -2.585116 5.996355 25.500591 -5.978408 4.762331 -15.262092 0.000000 0.000000 0.000000 -24.143296 -19.516716 12.095059 -45.680122 -41.089194 8.109518 2.678424 -48.369035 2.270981 0.000000 0.000000 0.000000 -2.882514 22.802554 7.432461 36.662900 38.262834 5.427524 -16.242250 76.770833 -9.698985 0.000000 0.000000 0.000000 
-0.002131 0.942701 -0.000357 -6.814188 -19.216307 10.271886 12.802833 1.565613 -20.462400 -4.988733 1.327959 11.990261 3.316397 7.446859 7.259789 0.000000 0.000000 0.000000 -4.927386 1.290306 -12.896383 3.187421 -0.011423 6.072949 -5.239899 -17.368199 15.081528 0.000000 0.000000 0.000000 -9.335406 2.378178 22.588210 -1.199542 0.386851 -18.148674 -3.081512 5.867901 25.800632 -5.648246 4.505424 -15.134480 0.000000 0.000000 0.000000 -22.477219 -18.755035 11.347367 -47.970001 -42.853998 9.717790 4.830621 -47.020572 1.291443 0.000000 0.000000 0.000000 -3.975573 22.157768 7.074644 36.461694 39.791193 5.728741 -9.201427 77.176654 -4.293026 0.000000 0.000000 0.000000 
-0.002719 0.942416 -0.000349 -6.701524 -19.432913 9.820871 12.551569 1.527954 -20.399626 -4.705113 1.313467 12.743390 3.637359 7.998309 7.051397 0.000000 0.000000 0.000000 -4.829570 1.290181 -12.910555 2.810033 0.054749 6.658373 -5.055717 -17.203048 15.481011 0.000000 0.000000 0.000000 -9.374078 2.422773 22.828361 -1.522328 0.464920 -17.805921 -2.469540 6.202618 25.292705 -4.709406 3.871301 -14.938681 0.000000 0.000000 0.000000 -20.816525 -18.722298 10.875398 -49.202663 -42.643768 10.187303 7.769441 -47.814031 0.034682 0.000000 0.000000 0.000000 -3.731503 22.220212 7.120239 36.095594 39.967388 5.782785 -3.009465 77.048684 0.635076 0.000000 0.000000 0.000000 
-0.003125 0.942345 -0.000271 -6.641233 -18.840340 10.070098 12.667483 1.536144 -20.836388 -4.988531 1.350995 12.542892 3.378110 7.618589 7.652102 0.000000 0.000000 0.000000 -5.025028 1.291282 -13.012499 3.263218 0.008853 6.940813 -5.510548 -17.727583 14.953685 0.000000 0.000000 0.000000 -9.289434 2.375293 22.849757 -1.232970 0.414036 -18.514471 -2.255381 6.098439 25.624188 -4.002818 3.393224 -14.963947 0.000000 0.000000 0.000000 -20.636741 -19.160126 11.045678 -48.558178 -42.534538 9.915005 9.490760 -47.324889 -0.754977 0.000000 0.000000 0.000000 -4.558367 22.217756 7.012894 36.439320 39.453980 5.717771 3.954323 78.300331 6.361921 0.000000 0.000000 0.000000 
-0.003369 0.942831 -0.000032 -6.377142 -18.448957 10.134131 12.472412 1.476048 -21.079607 -4.943095 1.342927 12.810378 3.460530 7.795667 7.654747 0.000000 0.000000 0.000000 -4.988632 1.317290 -13.332490 2.829649 0.070122 7.316096 -5.476014 -17.624224 14.796552 0.000000 0.000000 0.000000 -9.004992 2.256199 22.681334 -1.281965 0.428857 -18.228408 -2.314181 6.068900 25.303643 -3.603290 3.126579 -15.395545 0.000000 0.000000 0.000000 -20.740735 -19.049317 10.947826 -48.718713 -42.556826 9.994647 9.594225 -47.209972 -0.800677 0.000000 0.000000 0.000000 -4.403152 22.248425 7.049606 35.776345 38.708030 5.376831 10.597561 78.146982 11.702210 0.000000 0.000000 0.000000 
-0.003525 0.943435 0.000200 -6.195316 -18.194258 10.290383 12.294935 1.420793 -21.290912 -4.968871 1.346596 12.926265 3.559187 7.995882 7.673774 0.000000 0.000000 0.000000 -4.894757 1.342142 -13.600390 2.531807 0.112332 7.523706 -5.626173 -17.826839 14.707516 0.000000 0.000000 0.000000 -9.084238 2.275286 22.707498 -1.157550 0.401030 -18.188699 -2.121183 6.068489 25.082144 -3.396324 3.000118 -15.300094 0.000000 0.000000 0.000000 -20.821087 -19.325813 11.069981 -48.549080 -42.397709 9.882276 10.456441 -47.817381 -1.188615 0.000000 0.000000 0.000000 -4.577725 21.982706 6.958665 35.436218 37.818578 5.069326 11.917735 76.876854 12.480988 0.000000 0.000000 0.000000 
